<svg width="53" height="56" viewBox="0 0 53 56" fill="none" xmlns="http://www.w3.org/2000/svg">
<path d="M14.6244 21.8453C14.1706 21.4865 13.7156 21.3071 13.2618 21.3071H11.2221V34.2331H13.263C13.7168 34.2331 14.1717 34.0537 14.6255 33.6949C15.0793 33.336 15.3062 32.7978 15.3062 32.079V23.4612C15.3051 22.7436 15.077 22.2041 14.6244 21.8453ZM47.8381 0.03302H5.70981C2.87942 0.03302 0.582365 2.45688 0.575348 5.45237V50.0445C0.582365 53.04 2.87942 55.4638 5.70981 55.4638H47.8381C50.6697 55.4638 52.9656 53.04 52.9726 50.0445V5.45237C52.9656 2.45688 50.6685 0.03302 47.8381 0.03302ZM18.6103 32.1025C18.6103 34.4298 17.2524 37.9561 12.9542 37.9487H7.52734V17.4764H13.0688C17.2138 17.4764 18.608 20.9977 18.6091 23.3263L18.6103 32.1025ZM30.3856 21.1326H24.1541V25.8863H27.9634V29.545H24.1541V34.2974H30.3868V37.9561H23.1144C21.8091 37.992 20.7237 36.9007 20.691 35.5199V20.0401C20.6594 18.6605 21.6921 17.5148 22.9962 17.4801H30.3868L30.3856 21.1326ZM42.5072 35.3974C40.9633 39.2021 38.1973 38.4448 36.9587 35.3974L32.4523 17.4814H36.2616L39.7365 31.5519L43.1949 17.4814H47.0054L42.5072 35.3974Z" fill="#FF5722"/>
</svg>
