<svg width="60" height="58" viewBox="0 0 60 58" fill="none" xmlns="http://www.w3.org/2000/svg">
<path d="M57.9845 27.3004L52.622 17.0638C52.7367 16.8111 52.8228 16.5267 52.8228 16.2107C52.8228 15.2629 52.1059 14.4729 51.2456 14.4413L45.3095 3.13048C45.3669 2.94093 45.4242 2.75138 45.4242 2.56183C45.4242 1.55085 44.6786 0.760925 43.7896 0.760925C43.2735 0.760925 42.8433 1.0137 42.5278 1.42441H31.1148C30.828 1.01382 30.3978 0.761043 29.8817 0.761043C29.3656 0.761043 28.9354 1.01382 28.6486 1.42453H17.2928C16.9773 1.01382 16.5473 0.761043 16.031 0.761043C15.1421 0.761043 14.3965 1.55085 14.3965 2.56195C14.3965 2.7515 14.4539 2.97266 14.5112 3.1306L8.51781 14.5995C7.9444 14.8838 7.54283 15.4841 7.54283 16.2108C7.54283 16.274 7.57152 16.3372 7.57152 16.4004L1.86489 27.2689C1.09065 27.4269 0.517029 28.1536 0.517029 29.0382C0.517029 29.8912 1.06185 30.6179 1.80751 30.8075L7.71487 42.0552C7.65749 42.2448 7.6288 42.4027 7.6288 42.6239C7.6288 43.4769 8.17362 44.2036 8.91928 44.3616L14.4539 54.9457C14.3965 55.1353 14.3392 55.3564 14.3392 55.5776C14.3392 56.5885 15.0848 57.3785 15.9738 57.3785C16.4899 57.3785 16.9201 57.1257 17.2069 56.7466H28.6487C28.9354 57.1256 29.3943 57.3784 29.8817 57.3784C30.3691 57.3784 30.828 57.1256 31.1148 56.7465H42.5853C42.872 57.094 43.3022 57.3151 43.761 57.3151C44.6786 57.3151 45.3956 56.4937 45.3956 55.5142C45.3956 55.3247 45.367 55.1667 45.3096 55.0088L50.8442 44.3614C51.5898 44.2035 52.1347 43.4768 52.1347 42.6238C52.1347 42.4342 52.106 42.2447 52.0486 42.0551L57.9273 30.8074C58.6729 30.6494 59.2465 29.9227 59.2465 29.0381C59.2463 28.1851 58.7013 27.4583 57.9845 27.3004ZM15.4861 52.0389L10.812 43.0977H15.4861V52.0389ZM15.4861 42.1498H10.812C10.7833 42.0235 10.7259 41.8972 10.6686 41.7707L15.4861 36.1786V42.1498ZM15.4861 34.7883L10.095 41.0756C9.95164 41.0124 9.80818 40.9176 9.66483 40.8861L3.7003 29.512C3.75757 29.3541 3.75757 29.196 3.75757 29.0381C3.75757 28.8801 3.75757 28.7538 3.72888 28.6274L9.29216 18.0116C9.57897 17.98 9.86567 17.8852 10.1238 17.6956L15.4862 23.825L15.4861 34.7883ZM15.4861 22.7191L10.5825 17.127C10.7259 16.8742 10.812 16.5583 10.812 16.2108C10.812 16.1792 10.7833 16.116 10.7833 16.0844L15.4861 14.2203V22.7191ZM15.4861 13.2092L10.812 15.0733L15.4861 6.16363V13.2092ZM50.4426 17.8221L50.5287 17.98L46.7434 37.695L39.9184 29.7648L50.414 17.7905L50.4426 17.8221ZM30.2832 40.7596L31.5163 42.1498H29.0788L30.2832 40.7596ZM30.2545 39.4327L21.3362 29.3541L29.853 19.4018L38.7427 29.7332L30.2545 39.4327ZM30.828 40.1278L39.3162 30.4283L46.5426 38.8324L45.9118 42.1498H32.6346L30.828 40.1278ZM42.9868 4.11008C43.1015 4.1733 43.2161 4.23652 43.3596 4.26813L49.5536 16.1476V16.2108C49.5536 16.5583 49.6396 16.8742 49.7831 17.127L39.3449 29.0697L30.4553 18.7383L42.9868 4.11008ZM42.0118 3.8573L29.853 18.0432L23.7449 10.9345L41.5529 3.8573H42.0118ZM28.792 3.8573C29.0787 4.17318 29.4514 4.36273 29.8817 4.36273C30.312 4.36273 30.6846 4.17318 30.9714 3.8573H39.0008L23.1141 10.1761L17.6656 3.8573H28.792ZM16.3465 4.52079L16.4612 4.26813C16.558 4.24089 16.6536 4.20925 16.748 4.1733L22.2252 10.5239L16.3465 12.8618V4.52079ZM16.3465 13.8728L22.856 11.2821L29.2508 18.7383L20.734 28.659L16.3465 23.6987V13.8728ZM16.3465 24.8044L20.2465 29.2592L16.3465 33.7773V24.8044ZM16.3465 35.1675L20.8487 29.9229L29.7097 40.0647L27.8744 42.1498H16.3465V35.1675ZM17.0921 54.2821C16.9201 54.0925 16.7193 53.9662 16.4612 53.8714L16.3465 53.6818V43.0977H27.0427L17.2355 54.2821H17.0921ZM31.0001 54.2821C30.7133 53.9978 30.312 53.7767 29.8817 53.7767C29.4514 53.7767 29.0502 53.9978 28.7633 54.2821H18.4397L28.247 43.0977H32.3478L42.1551 54.2821H31.0001ZM43.8471 52.8919L43.3883 53.7765C43.2449 53.8082 43.1303 53.8713 43.0155 53.9345L33.4663 43.0976H45.7112L43.8471 52.8919ZM45.2235 50.2696L46.6 43.0977H48.9514L45.2235 50.2696ZM48.9514 42.1498H46.7721L47.2595 39.654L49.0948 41.8023C49.0375 41.8971 48.9801 42.0234 48.9514 42.1498ZM56.0345 29.4804L50.0985 40.8861C49.9551 40.9492 49.8117 41.0124 49.6683 41.1071L47.4602 38.5164L51.1595 19.1807L56.0631 28.5327C56.0345 28.6906 55.9771 28.8485 55.9771 29.0381C55.9771 29.196 56.0058 29.3225 56.0345 29.4804Z" fill="#FF5722"/>
</svg>
